<!DOCTYPE svg PUBLIC "-//W3C//DTD SVG 1.1//EN" "http://www.w3.org/Graphics/SVG/1.1/DTD/svg11.dtd">
<!-- Uploaded to: SVG Repo, www.svgrepo.com, Transformed by: SVG Repo Mixer Tools -->
<svg version="1.1" id="Layer_1" xmlns="http://www.w3.org/2000/svg" xmlns:xlink="http://www.w3.org/1999/xlink" viewBox="0 0 509.287 509.287" xml:space="preserve" width="800px" height="800px" fill="#000000">
<g id="SVGRepo_bgCarrier" stroke-width="0"/>
<g id="SVGRepo_tracerCarrier" stroke-linecap="round" stroke-linejoin="round"/>
<g id="SVGRepo_iconCarrier"> <circle style="fill:#1ab769;" cx="254.644" cy="254.644" r="254.644"/> <rect x="83.073" y="144.445" style="fill:#F1F3F7;" width="343.142" height="281.77"/> <path style="fill:#24d3dc;" d="M260.408,372.641l-24.752-6.103c-3.052-15.936-9.155-30.517-17.971-43.401l12.885-21.701 c1.017-1.356,0.678-3.391-0.678-4.408l-17.293-17.293c-1.356-1.356-3.052-1.356-4.408-0.678l-21.701,12.885 c-12.885-8.816-27.465-14.919-43.401-17.971l-6.103-24.752c-0.339-1.695-2.034-2.713-3.73-2.713h-24.413 c-1.695,0-3.052,1.017-3.73,2.713l-6.103,24.752c-5.425,1.017-10.85,2.373-16.276,4.408v65.78 c10.172-8.816,23.735-14.241,38.315-14.241c32.212,0,58.321,26.109,58.321,58.321c0,14.58-5.425,27.804-14.241,37.976h65.78 c1.695-5.086,3.391-10.511,4.408-15.936l24.752-6.103c1.695-0.339,2.713-2.034,2.713-3.73v-24.413 C263.121,374.336,262.103,372.98,260.408,372.641z"/> <g> <path style="fill:#1ab769;" d="M339.412,263.799c-2.034,0-4.408-0.678-6.103-2.373c-3.391-3.391-3.391-8.816,0-12.207 l28.143-28.143l-28.143-28.143c-3.391-3.391-3.391-8.816,0-12.207c3.391-3.391,8.816-3.391,12.207,0l34.246,34.246 c3.391,3.391,3.391,8.816,0,12.207l-34.246,34.246C343.82,262.781,341.785,263.799,339.412,263.799z"/> <path style="fill:#1ab769;" d="M257.695,263.799c-2.034,0-4.408-0.678-6.103-2.373l-34.246-34.246 c-3.391-3.391-3.391-8.816,0-12.207l34.246-34.246c3.391-3.391,8.816-3.391,12.207,0c3.391,3.391,3.391,8.816,0,12.207 l-28.143,28.143l28.143,28.143c3.391,3.391,3.391,8.816,0,12.207C262.103,262.781,259.73,263.799,257.695,263.799z"/> <path style="fill:#1ab769;" d="M278.718,285.16c-1.017,0-2.034,0-2.713-0.339c-4.408-1.695-6.781-6.442-5.086-10.85l39.332-111.555 c1.695-4.408,6.442-6.781,10.85-5.086c4.408,1.695,6.781,6.442,5.086,10.85l-39.332,111.555 C285.838,283.126,282.448,285.16,278.718,285.16z"/> </g> <rect x="83.073" y="83.073" style="fill:#393D47;" width="343.142" height="61.372"/> <g> <rect x="108.164" y="106.469" style="fill:#DEDEDF;" width="226.162" height="14.919"/> <rect x="348.567" y="106.469" style="fill:#DEDEDF;" width="18.988" height="14.919"/> <rect x="382.135" y="106.469" style="fill:#DEDEDF;" width="18.988" height="14.919"/> </g> </g>
</svg>