<!DOCTYPE svg PUBLIC "-//W3C//DTD SVG 1.1//EN" "http://www.w3.org/Graphics/SVG/1.1/DTD/svg11.dtd">
<!-- Uploaded to: SVG Repo, www.svgrepo.com, Transformed by: SVG Repo Mixer Tools -->
<svg version="1.1" id="Layer_1" xmlns="http://www.w3.org/2000/svg" xmlns:xlink="http://www.w3.org/1999/xlink" viewBox="0 0 393.568 393.568" xml:space="preserve" width="800px" height="800px" fill="#000000">
<g id="SVGRepo_bgCarrier" stroke-width="0"/>
<g id="SVGRepo_tracerCarrier" stroke-linecap="round" stroke-linejoin="round"/>
<g id="SVGRepo_iconCarrier"> <circle style="fill:#1ab769;" cx="196.784" cy="196.784" r="196.784"/> <g> <rect x="185.018" y="300.283" style="fill:#DDDEE6;" width="23.596" height="63.16"/> <path style="fill:#DDDEE6;" d="M323.62,347.151H69.947c10.731,8.921,22.303,17.002,34.844,23.596h183.919 C301.317,364.218,312.824,356.073,323.62,347.151z"/> <path style="fill:#DDDEE6;" d="M196.784,292.137c-72.339,0-131.297-58.958-131.297-131.297S124.444,29.608,196.784,29.608 s131.297,58.958,131.297,131.297S269.123,292.137,196.784,292.137z"/> </g> <path style="fill:#24d3dc;" d="M196.784,13.64c-81.196,0-147.006,65.745-147.006,147.006s65.81,146.941,147.006,146.941 S343.79,241.842,343.79,160.582C343.79,79.644,277.98,13.64,196.784,13.64z M196.784,290.327c-15.192,0-31.677-20.428-41.891-53.98 h84.105C228.461,269.899,211.976,290.327,196.784,290.327z M150.691,220.638c-3.426-15.451-5.754-33.034-6.012-52.17h104.533 c-0.517,19.135-2.65,36.655-6.012,52.17L150.691,220.638L150.691,220.638z M65.81,168.469h63.095 c0.517,18.618,2.327,36.137,5.754,52.17H79.903C71.822,204.929,66.844,187.345,65.81,168.469z M196.784,31.224 c15.192,0,31.677,20.428,41.891,53.98h-83.782C165.107,51.394,181.592,31.224,196.784,31.224z M242.877,100.655 c3.426,15.451,5.754,33.034,6.012,52.17H144.614c0.517-19.135,2.651-36.655,6.012-52.17H242.877L242.877,100.655z M128.905,152.76 h-63.16c1.034-18.618,6.012-36.396,14.416-52.17h54.497C131.297,116.622,129.164,134.141,128.905,152.76z M264.663,168.469h63.16 c-1.034,18.618-6.012,36.396-14.416,52.17h-54.497C262.271,204.671,264.404,187.087,264.663,168.469z M264.663,152.76 c-0.517-18.618-2.327-36.137-5.754-52.17h54.497c8.145,15.709,13.123,33.552,14.416,52.17H264.663L264.663,152.76z M303.968,85.139 h-48.743c-6.012-21.463-14.675-39.046-24.889-51.329C260.461,41.697,286.384,60.251,303.968,85.139z M163.232,33.81 c-10.214,12.024-18.877,29.867-24.889,51.329H89.6C107.184,60.251,133.107,41.697,163.232,33.81z M89.6,236.347h48.743 c6.012,21.463,14.675,39.046,24.889,51.329C133.107,279.596,107.184,261.236,89.6,236.347z M230.335,287.677 c10.214-12.024,18.877-29.867,24.889-51.329h48.743C286.384,261.236,260.461,279.596,230.335,287.677z"/> <circle style="fill:#646B79;" cx="196.784" cy="358.982" r="20.945"/> </g>
</svg>